<svg width="119" height="40" viewBox="0 0 119 40" fill="none" xmlns="http://www.w3.org/2000/svg">
<rect width="118.81" height="39.6033" rx="5.9405" fill="#901C27"/>
<path d="M24.4588 20.5576C24.4708 19.6468 24.7186 18.7538 25.1791 17.9616C25.6396 17.1695 26.2979 16.5039 27.0927 16.0269C26.5878 15.3229 25.9217 14.7435 25.1473 14.3348C24.373 13.9261 23.5116 13.6993 22.6318 13.6724C20.7549 13.4801 18.9354 14.7689 17.9789 14.7689C17.004 14.7689 15.5314 13.6915 13.9457 13.7233C12.9201 13.7557 11.9204 14.0469 11.0443 14.5685C10.1682 15.0902 9.44539 15.8245 8.94638 16.7C6.78481 20.3538 8.39715 25.7237 10.4678 28.6771C11.5038 30.1234 12.7145 31.7388 14.2988 31.6815C15.8491 31.6188 16.4281 30.7164 18.2995 30.7164C20.1535 30.7164 20.6967 31.6815 22.3131 31.6451C23.9767 31.6188 25.0248 30.1925 26.0245 28.7326C26.7688 27.7021 27.3416 26.5632 27.7216 25.358C26.7551 24.9589 25.9303 24.2909 25.3501 23.4373C24.7699 22.5836 24.4599 21.5821 24.4588 20.5576Z" fill="white"/>
<path d="M21.406 11.7299C22.313 10.6668 22.7599 9.30044 22.6517 7.9209C21.2659 8.06299 19.9859 8.70959 19.0666 9.73187C18.6171 10.2313 18.2729 10.8123 18.0535 11.4416C17.8342 12.071 17.7441 12.7364 17.7883 13.3998C18.4814 13.4068 19.1671 13.2601 19.7938 12.9709C20.4204 12.6816 20.9717 12.2573 21.406 11.7299Z" fill="white"/>
<path d="M36.4257 8.69474H38.475C40.2459 8.69474 41.1074 9.74767 41.1074 11.6577C41.1074 13.5678 40.2372 14.6338 38.475 14.6338H36.4257V8.69474ZM37.4134 9.52577V13.8028H38.3663C39.541 13.8028 40.0936 13.0936 40.0936 11.6708C40.0936 10.2393 39.5367 9.52577 38.3663 9.52577H37.4134ZM44.2314 9.95652C45.4322 9.95652 46.272 10.7353 46.272 12.0276V12.6236C46.272 13.9594 45.4322 14.7121 44.2314 14.7121C43.0131 14.7121 42.1821 13.9681 42.1821 12.628V12.0319C42.1821 10.7745 43.0261 9.95652 44.2314 9.95652ZM44.2357 10.7353C43.5483 10.7353 43.1567 11.3097 43.1567 12.0798V12.5932C43.1567 13.3633 43.5222 13.9333 44.2357 13.9333C44.9406 13.9333 45.3017 13.3677 45.3017 12.5932V12.0798C45.3017 11.3097 44.9232 10.7353 44.2357 10.7353ZM53.364 10.0348L52.1544 14.6338H51.1711L50.2096 11.24H50.1835L49.2393 14.6338H48.2516L46.9899 10.0348H48.0297L48.7694 13.5417H48.8129L49.7397 10.0348H50.649L51.6019 13.5417H51.6454L52.3981 10.0348H53.364ZM54.3212 14.6338V10.0348H55.2697V10.8615H55.3176C55.4351 10.5004 55.7701 9.96522 56.7012 9.96522C57.6279 9.96522 58.2501 10.4786 58.2501 11.5272V14.6338H57.2842V11.81C57.2842 11.1095 56.9187 10.7875 56.3749 10.7875C55.6613 10.7875 55.2871 11.3358 55.2871 12.0798V14.6338H54.3212ZM59.712 14.6338V8.38147H60.6779V14.6338H59.712ZM63.9934 9.95652C65.1942 9.95652 66.034 10.7353 66.034 12.0276V12.6236C66.034 13.9594 65.1942 14.7121 63.9934 14.7121C62.7751 14.7121 61.9441 13.9681 61.9441 12.628V12.0319C61.9441 10.7745 62.7882 9.95652 63.9934 9.95652ZM63.9977 10.7353C63.3103 10.7353 62.9187 11.3097 62.9187 12.0798V12.5932C62.9187 13.3633 63.2842 13.9333 63.9977 13.9333C64.7026 13.9333 65.0637 13.3677 65.0637 12.5932V12.0798C65.0637 11.3097 64.6852 10.7353 63.9977 10.7353ZM68.5358 14.7034C67.6438 14.7034 67.0304 14.1552 67.0304 13.298C67.0304 12.4844 67.596 11.9362 68.6576 11.9362H69.8193V11.5055C69.8193 10.979 69.4843 10.731 68.9535 10.731C68.4314 10.731 68.1964 10.9485 68.1224 11.2531H67.2044C67.261 10.483 67.8396 9.96522 68.9839 9.96522C69.9672 9.96522 70.7809 10.3742 70.7809 11.5185V14.6338H69.8628V14.0377H69.8193C69.6148 14.3901 69.2145 14.7034 68.5358 14.7034ZM68.836 13.955C69.3842 13.955 69.8193 13.5809 69.8193 13.0805V12.5845H68.8099C68.2486 12.5845 68.0006 12.8673 68.0006 13.2502C68.0006 13.7288 68.4009 13.955 68.836 13.955ZM73.7569 9.97392C74.4052 9.97392 74.9012 10.2611 75.0796 10.7266H75.1275V8.38147H76.0934V14.6338H75.1536V13.8985H75.1057C74.9665 14.364 74.4139 14.6947 73.7439 14.6947C72.6866 14.6947 71.9991 13.942 71.9991 12.7281V11.9405C71.9991 10.7266 72.6996 9.97392 73.7569 9.97392ZM74.0267 10.7658C73.3827 10.7658 72.9824 11.2444 72.9824 12.0798V12.5845C72.9824 13.4242 73.3871 13.9028 74.0484 13.9028C74.7011 13.9028 75.1275 13.4286 75.1275 12.6454V11.9493C75.1275 11.24 74.6619 10.7658 74.0267 10.7658ZM81.3972 9.95652C82.5981 9.95652 83.4378 10.7353 83.4378 12.0276V12.6236C83.4378 13.9594 82.5981 14.7121 81.3972 14.7121C80.1789 14.7121 79.3479 13.9681 79.3479 12.628V12.0319C79.3479 10.7745 80.192 9.95652 81.3972 9.95652ZM81.4016 10.7353C80.7141 10.7353 80.3225 11.3097 80.3225 12.0798V12.5932C80.3225 13.3633 80.688 13.9333 81.4016 13.9333C82.1064 13.9333 82.4675 13.3677 82.4675 12.5932V12.0798C82.4675 11.3097 82.089 10.7353 81.4016 10.7353ZM84.6821 14.6338V10.0348H85.6307V10.8615H85.6785C85.796 10.5004 86.131 9.96522 87.0621 9.96522C87.9889 9.96522 88.6111 10.4786 88.6111 11.5272V14.6338H87.6451V11.81C87.6451 11.1095 87.2797 10.7875 86.7358 10.7875C86.0222 10.7875 85.6481 11.3358 85.6481 12.0798V14.6338H84.6821ZM92.3485 10.0653V8.91664H93.2927V10.0653H94.3239V10.8224H93.2927V13.2632C93.2927 13.7636 93.4798 13.9028 93.9976 13.9028C94.1281 13.9028 94.3021 13.8941 94.3761 13.8854V14.6251C94.2978 14.6381 93.9758 14.6642 93.7582 14.6642C92.6401 14.6642 92.3355 14.264 92.3355 13.3416V10.8224H91.635V10.0653H92.3485ZM95.5421 14.6338V8.38147H96.5037V10.8615H96.5516C96.6516 10.5352 97.0258 9.96522 97.9482 9.96522C98.8445 9.96522 99.4841 10.483 99.4841 11.5316V14.6338H98.5225V11.8144C98.5225 11.1139 98.1353 10.7875 97.5871 10.7875C96.8953 10.7875 96.5037 11.3314 96.5037 12.0798V14.6338H95.5421ZM102.726 14.7121C101.472 14.7121 100.694 13.942 100.694 12.6454V12.0232C100.694 10.7179 101.546 9.95652 102.669 9.95652C103.822 9.95652 104.636 10.7571 104.636 12.0232V12.5627H101.651V12.789C101.651 13.4503 102.042 13.9376 102.721 13.9376C103.226 13.9376 103.574 13.6983 103.639 13.4112H104.583C104.527 13.942 103.966 14.7121 102.726 14.7121ZM101.651 11.9318H103.691V11.8709C103.691 11.1791 103.287 10.7179 102.673 10.7179C102.06 10.7179 101.651 11.1791 101.651 11.8709V11.9318Z" fill="white"/>
<path d="M37.8268 30.5444H35.8166L39.9065 18.6663H42.1168L46.198 30.5444H44.1095L43.0566 27.2551H38.8884L37.8268 30.5444ZM41.0204 20.72H40.942L39.3322 25.741H42.6128L41.0204 20.72ZM51.7457 30.675C50.5535 30.675 49.6485 30.1093 49.1612 29.2653H49.0916V33.5988H47.1598V21.3465H49.0394V22.6953H49.109C49.6137 21.8164 50.5535 21.2247 51.7892 21.2247C53.8515 21.2247 55.3221 22.7823 55.3221 25.5321V26.3501C55.3221 29.0825 53.8689 30.675 51.7457 30.675ZM51.3019 29.0825C52.5288 29.0825 53.3642 28.0992 53.3642 26.2457V25.6018C53.3642 23.8179 52.581 22.7997 51.2671 22.7997C49.9183 22.7997 49.0742 23.8962 49.0742 25.593V26.2457C49.0742 27.9861 49.927 29.0825 51.3019 29.0825ZM61.566 30.675C60.3738 30.675 59.4688 30.1093 58.9815 29.2653H58.9119V33.5988H56.9801V21.3465H58.8597V22.6953H58.9293C59.434 21.8164 60.3738 21.2247 61.6095 21.2247C63.6718 21.2247 65.1425 22.7823 65.1425 25.5321V26.3501C65.1425 29.0825 63.6892 30.675 61.566 30.675ZM61.1222 29.0825C62.3491 29.0825 63.1845 28.0992 63.1845 26.2457V25.6018C63.1845 23.8179 62.4014 22.7997 61.0874 22.7997C59.7386 22.7997 58.8945 23.8962 58.8945 25.593V26.2457C58.8945 27.9861 59.7473 29.0825 61.1222 29.0825ZM69.1458 27.2464H71.0776C71.1646 28.2732 72.0696 29.1521 73.7491 29.1521C75.2893 29.1521 76.203 28.4299 76.203 27.3073C76.203 26.4023 75.5939 25.915 74.3234 25.6105L72.3742 25.1231C70.8426 24.7664 69.4677 23.8527 69.4677 21.9208C69.4677 19.6496 71.4518 18.4053 73.7578 18.4053C76.0638 18.4053 77.9869 19.6496 78.0304 21.8686H76.1334C76.0464 20.8592 75.2719 20.0238 73.7317 20.0238C72.3742 20.0238 71.4518 20.6678 71.4518 21.7729C71.4518 22.5474 71.9913 23.1043 73.0964 23.3567L75.037 23.8353C76.8208 24.2704 78.1783 25.1144 78.1783 27.1333C78.1783 29.4654 76.29 30.7794 73.6011 30.7794C70.2944 30.7794 69.1893 28.8476 69.1458 27.2464ZM80.5324 21.3465V19.1101H82.4294V21.3465H84.222V22.8955H82.4294V27.8033C82.4294 28.8041 82.8036 29.0825 83.8391 29.0825C84.0045 29.0825 84.1611 29.0825 84.2742 29.0651V30.5444C84.1176 30.5705 83.7521 30.6053 83.3605 30.6053C81.1241 30.6053 80.5063 29.8048 80.5063 27.96V22.8955H79.2358V21.3465H80.5324ZM89.439 21.1899C92.0844 21.1899 93.5202 23.0521 93.5202 25.5582V26.2979C93.5202 28.8911 92.0931 30.7011 89.439 30.7011C86.7849 30.7011 85.3404 28.8911 85.3404 26.2979V25.5582C85.3404 23.0608 86.7936 21.1899 89.439 21.1899ZM89.439 22.7388C88.0032 22.7388 87.2896 23.9136 87.2896 25.5843V26.2892C87.2896 27.9339 87.9945 29.1434 89.439 29.1434C90.8835 29.1434 91.5797 27.9426 91.5797 26.2892V25.5843C91.5797 23.9049 90.8748 22.7388 89.439 22.7388ZM95.1521 30.5444V21.3465H97.0839V22.5561H97.1535C97.3884 21.9818 98.0759 21.216 99.3551 21.216C99.6074 21.216 99.825 21.2334 100.008 21.2682V22.9738C99.8424 22.9303 99.503 22.9042 99.181 22.9042C97.6321 22.9042 97.11 23.8614 97.11 25.097V30.5444H95.1521ZM104.694 30.7011C102.231 30.7011 100.665 29.0738 100.665 26.3501V25.419C100.665 22.8519 102.196 21.1899 104.616 21.1899C107.07 21.1899 108.549 22.9129 108.549 25.506V26.3849H102.571V26.6025C102.571 28.1514 103.406 29.1782 104.72 29.1782C105.703 29.1782 106.373 28.6909 106.608 27.8991H108.444C108.166 29.3871 106.965 30.7011 104.694 30.7011ZM102.571 25.0361H106.661V25.0187C106.661 23.7134 105.851 22.6866 104.624 22.6866C103.38 22.6866 102.571 23.7134 102.571 25.0187V25.0361Z" fill="white"/>
</svg>
