<svg width="87" height="85" viewBox="0 0 87 85" fill="none" xmlns="http://www.w3.org/2000/svg">
<g filter="url(#filter0_d_512_6771)">
<path d="M14.624 28C14.624 23.5817 18.2057 20 22.624 20H51.624C56.0423 20 59.624 23.5817 59.624 28V57C59.624 61.4183 56.0423 65 51.624 65H22.624C18.2057 65 14.624 61.4183 14.624 57V28Z" fill="black" fill-opacity="0.01" shape-rendering="crispEdges"/>
<path d="M37.1239 36.0098C37.6839 36.0098 38.2439 36.3598 38.6639 37.0698L44.5739 46.9198C45.4339 48.3398 44.7739 49.4998 43.1239 49.4998H31.1239C29.4739 49.4998 28.8139 48.3398 29.6639 46.9298L35.5739 37.0798C36.0039 36.3598 36.5639 36.0098 37.1239 36.0098ZM37.1239 34.0098C35.8239 34.0098 34.6439 34.7498 33.8639 36.0398L27.9539 45.8998C27.5139 46.6398 27.2939 47.3998 27.2939 48.1298C27.2939 48.6898 27.4339 49.2398 27.7139 49.7298C28.3539 50.8498 29.5939 51.4998 31.1239 51.4998H43.1239C44.6539 51.4998 45.8939 50.8498 46.5339 49.7298C46.8239 49.2198 46.9639 48.6598 46.9539 48.0798C46.9439 47.3698 46.7239 46.6198 46.2939 45.8998L40.3839 36.0498C39.6039 34.7498 38.4239 34.0098 37.1239 34.0098ZM38.6239 47.2498C38.6239 47.2498 37.9139 47.6098 37.5539 47.4298C37.1939 47.2498 37.1239 46.8898 37.3239 46.2798L37.7339 45.0598C38.1339 43.8398 37.6139 42.9798 36.6539 42.9298C35.3939 42.8598 34.6339 43.7598 34.6339 43.7598C34.6339 43.7598 35.3439 43.3998 35.7039 43.5798C36.0639 43.7598 36.1339 44.1198 35.9339 44.7298L35.5239 45.9498C35.1239 47.1698 35.6439 48.0198 36.6039 48.0798C37.8639 48.1398 38.6239 47.2498 38.6239 47.2498Z" fill="#069341"/>
<path fill-rule="evenodd" clip-rule="evenodd" d="M37.1239 36.0098C37.6839 36.0098 38.2439 36.3598 38.6639 37.0698L44.5739 46.9198C45.4339 48.3398 44.7739 49.4998 43.1239 49.4998H31.1239C29.4739 49.4998 28.8139 48.3398 29.6639 46.9298L35.5739 37.0798C36.0039 36.3598 36.5639 36.0098 37.1239 36.0098ZM37.5539 47.4298C37.9139 47.6098 38.6239 47.2498 38.6239 47.2498C38.6239 47.2498 37.8639 48.1398 36.6039 48.0798C35.6439 48.0198 35.1239 47.1698 35.5239 45.9498L35.9339 44.7298C36.1339 44.1198 36.0639 43.7598 35.7039 43.5798C35.3439 43.3998 34.6339 43.7598 34.6339 43.7598C34.6339 43.7598 35.3939 42.8598 36.6539 42.9298C37.6139 42.9798 38.1339 43.8398 37.7339 45.0598L37.3239 46.2798C37.1239 46.8898 37.1939 47.2498 37.5539 47.4298Z" fill="#FFEDEE"/>
<path d="M37.1242 41.8002C37.8422 41.8002 38.4242 41.2182 38.4242 40.5002C38.4242 39.7822 37.8422 39.2002 37.1242 39.2002C36.4062 39.2002 35.8242 39.7822 35.8242 40.5002C35.8242 41.2182 36.4062 41.8002 37.1242 41.8002Z" fill="#069341"/>
</g>
<defs>
<filter id="filter0_d_512_6771" x="-8.42233" y="-0.960714" width="95.264" height="95.264" filterUnits="userSpaceOnUse" color-interpolation-filters="sRGB">
<feFlood flood-opacity="0" result="BackgroundImageFix"/>
<feColorMatrix in="SourceAlpha" type="matrix" values="0 0 0 0 0 0 0 0 0 0 0 0 0 0 0 0 0 0 127 0" result="hardAlpha"/>
<feOffset dx="2.08564" dy="4.17129"/>
<feGaussianBlur stdDeviation="12.566"/>
<feComposite in2="hardAlpha" operator="out"/>
<feColorMatrix type="matrix" values="0 0 0 0 0 0 0 0 0 0 0 0 0 0 0 0 0 0 0.1 0"/>
<feBlend mode="normal" in2="BackgroundImageFix" result="effect1_dropShadow_512_6771"/>
<feBlend mode="normal" in="BackgroundImageFix" in2="effect1_dropShadow_512_6771" result="BackgroundImageFix"/>
<feBlend mode="normal" in="SourceGraphic" in2="BackgroundImageFix" result="shape"/>
</filter>
</defs>
</svg>
