<svg width="54" height="54" viewBox="0 0 54 54" fill="none" xmlns="http://www.w3.org/2000/svg">
<mask id="path-1-inside-1_512_6784" fill="white">
<path d="M0 9.30853C0 4.16757 4.16757 0 9.30853 0H44.6915C49.8324 0 54 4.16757 54 9.30853V44.6915C54 49.8324 49.8324 54 44.6915 54H9.30853C4.16757 54 0 49.8324 0 44.6915V9.30853Z"/>
</mask>
<path d="M0 9.30853C0 4.16757 4.16757 0 9.30853 0H44.6915C49.8324 0 54 4.16757 54 9.30853V44.6915C54 49.8324 49.8324 54 44.6915 54H9.30853C4.16757 54 0 49.8324 0 44.6915V9.30853Z" fill="white"/>
<path d="M9.30853 0V0.918605H44.6915V0V-0.918605H9.30853V0ZM54 9.30853H53.0814V44.6915H54H54.9186V9.30853H54ZM44.6915 54V53.0814H9.30853V54V54.9186H44.6915V54ZM0 44.6915H0.918605V9.30853H0H-0.918605V44.6915H0ZM9.30853 54V53.0814C4.6749 53.0814 0.918605 49.3251 0.918605 44.6915H0H-0.918605C-0.918605 50.3398 3.66024 54.9186 9.30853 54.9186V54ZM54 44.6915H53.0814C53.0814 49.3251 49.3251 53.0814 44.6915 53.0814V54V54.9186C50.3398 54.9186 54.9186 50.3398 54.9186 44.6915H54ZM44.6915 0V0.918605C49.3251 0.918605 53.0814 4.6749 53.0814 9.30853H54H54.9186C54.9186 3.66024 50.3398 -0.918605 44.6915 -0.918605V0ZM9.30853 0V-0.918605C3.66024 -0.918605 -0.918605 3.66024 -0.918605 9.30853H0H0.918605C0.918605 4.6749 4.6749 0.918605 9.30853 0.918605V0Z" fill="black" fill-opacity="0.08" mask="url(#path-1-inside-1_512_6784)"/>
<path d="M17.8135 25.4678C17.8135 21.1381 17.8135 18.9717 19.1592 17.6275C20.5035 16.2817 22.6698 16.2817 26.9995 16.2817H31.5925C35.9222 16.2817 38.0886 16.2817 39.4328 17.6275C40.7786 18.9717 40.7786 21.1381 40.7786 25.4678V33.1228C40.7786 37.4525 40.7786 39.6189 39.4328 40.9631C38.0886 42.3089 35.9222 42.3089 31.5925 42.3089H26.9995C22.6698 42.3089 20.5035 42.3089 19.1592 40.9631C17.8135 39.6189 17.8135 37.4525 17.8135 33.1228V25.4678Z" fill="#FFEDEE" stroke="#901C27" stroke-width="1.5"/>
<path d="M17.8147 37.7166C16.5966 37.7166 15.4283 37.2327 14.5669 36.3713C13.7056 35.51 13.2217 34.3417 13.2217 33.1236V23.9375C13.2217 18.1641 13.2217 15.2766 15.016 13.4838C16.8104 11.691 19.6963 11.6895 25.4697 11.6895H31.5938C32.8119 11.6895 33.9802 12.1734 34.8415 13.0347C35.7029 13.8961 36.1868 15.0643 36.1868 16.2825" stroke="#901C27" stroke-width="1.5"/>
</svg>
