<svg width="20" height="20" viewBox="0 0 20 20" fill="none" xmlns="http://www.w3.org/2000/svg">
<g clip-path="url(#clip0_583_12729)">
<path d="M7.84935 1.6665H4.95768C3.40602 1.6665 2.63018 1.6665 2.14768 2.14817C1.66602 2.63067 1.66602 3.4065 1.66602 4.95817V7.84984C1.66602 8.85817 1.66602 9.36317 1.85352 9.8165C2.04185 10.2707 2.39852 10.6273 3.11185 11.3407L7.63685 15.8657L7.63887 15.8677C9.28335 17.5113 10.1056 18.3332 11.1277 18.3332C12.1502 18.3332 12.9727 17.5107 14.6185 15.8648L15.8643 14.619C17.5102 12.9732 18.3327 12.1498 18.3327 11.1273C18.3327 10.1057 17.5102 9.28317 15.8643 7.63734L11.3393 3.11234C10.626 2.399 10.2693 2.04234 9.81602 1.854C9.36185 1.6665 8.85768 1.6665 7.84935 1.6665Z" fill="#FFEDEE" stroke="#901C27" stroke-width="1.5" stroke-linejoin="round"/>
<path d="M10.832 13.7498V7.9165" stroke="#901C27" stroke-width="1.5" stroke-linecap="round" stroke-linejoin="round"/>
<path d="M14.0625 10.4167H13.9583M7.8125 10.4167H7.70833M5.625 5.41667H5.41667M14.1667 10.4167C14.1667 10.4719 14.1447 10.5249 14.1056 10.564C14.0666 10.6031 14.0136 10.625 13.9583 10.625C13.9031 10.625 13.8501 10.6031 13.811 10.564C13.7719 10.5249 13.75 10.4719 13.75 10.4167C13.75 10.3614 13.7719 10.3084 13.811 10.2694C13.8501 10.2303 13.9031 10.2083 13.9583 10.2083C14.0136 10.2083 14.0666 10.2303 14.1056 10.2694C14.1447 10.3084 14.1667 10.3614 14.1667 10.4167ZM7.91667 10.4167C7.91667 10.4719 7.89472 10.5249 7.85565 10.564C7.81658 10.6031 7.76359 10.625 7.70833 10.625C7.65308 10.625 7.60009 10.6031 7.56102 10.564C7.52195 10.5249 7.5 10.4719 7.5 10.4167C7.5 10.3614 7.52195 10.3084 7.56102 10.2694C7.60009 10.2303 7.65308 10.2083 7.70833 10.2083C7.76359 10.2083 7.81658 10.2303 7.85565 10.2694C7.89472 10.3084 7.91667 10.3614 7.91667 10.4167ZM5.83333 5.41667C5.83333 5.52717 5.78943 5.63315 5.71129 5.71129C5.63315 5.78943 5.52717 5.83333 5.41667 5.83333C5.30616 5.83333 5.20018 5.78943 5.12204 5.71129C5.0439 5.63315 5 5.52717 5 5.41667C5 5.30616 5.0439 5.20018 5.12204 5.12204C5.20018 5.0439 5.30616 5 5.41667 5C5.52717 5 5.63315 5.0439 5.71129 5.12204C5.78943 5.20018 5.83333 5.30616 5.83333 5.41667Z" stroke="#901C27" stroke-width="1.5" stroke-linecap="round" stroke-linejoin="round"/>
</g>
<defs>
<clipPath id="clip0_583_12729">
<rect width="20" height="20" fill="white"/>
</clipPath>
</defs>
</svg>
