<svg width="17" height="19" viewBox="0 0 17 19" fill="none" xmlns="http://www.w3.org/2000/svg">
<path d="M0.9561 16.0288L3.66467 12.1831L6.82896 14.0302L8.00039 16.1717C8.11946 16.3893 8.17981 16.6342 8.1755 16.8822C8.17119 17.1303 8.10236 17.3729 7.97578 17.5863C7.84921 17.7996 7.66926 17.9763 7.45364 18.099C7.23803 18.2217 6.99418 18.2861 6.7461 18.286L2.12181 18.2802C1.86029 18.2799 1.60388 18.2077 1.38055 18.0716C1.15722 17.9355 0.975522 17.7408 0.855274 17.5085C0.735026 17.2763 0.680839 17.0155 0.698618 16.7546C0.716397 16.4936 0.80546 16.2426 0.9561 16.0288Z" fill="white"/>
<path d="M3.6652 12.1831L0.958053 16.0288C0.807414 16.2426 0.71835 16.4936 0.700571 16.7546C0.682792 17.0155 0.73698 17.2763 0.857227 17.5085C0.977475 17.7408 1.15917 17.9355 1.3825 18.0716C1.60584 18.2077 1.86224 18.2799 2.12377 18.2802L6.74805 18.286C6.99625 18.2864 7.24028 18.2221 7.45609 18.0996C7.67191 17.977 7.85206 17.8003 7.9788 17.5869C8.10554 17.3735 8.1745 17.1308 8.17888 16.8826C8.18325 16.6344 8.1229 16.3894 8.00377 16.1717L6.83234 14.0302" fill="#FFEDEE"/>
<path d="M3.6652 12.1831L0.958053 16.0288C0.807414 16.2426 0.71835 16.4936 0.700571 16.7546C0.682792 17.0155 0.73698 17.2763 0.857227 17.5085C0.977475 17.7408 1.15917 17.9355 1.3825 18.0716C1.60584 18.2077 1.86224 18.2799 2.12377 18.2802L6.74805 18.286C6.99625 18.2864 7.24028 18.2221 7.45609 18.0996C7.67191 17.977 7.85206 17.8003 7.9788 17.5869C8.10554 17.3735 8.1745 17.1308 8.17888 16.8826C8.18325 16.6344 8.1229 16.3894 8.00377 16.1717L6.83234 14.0302" stroke="#901C27" stroke-width="0.9375" stroke-linecap="round" stroke-linejoin="round"/>
<path d="M15.3214 8.91578C16.6086 9.82864 16.93 11.6586 15.6757 12.6158C14.0717 13.8404 12.1181 14.5201 10.1004 14.5556C8.08266 14.5912 6.10639 13.9808 4.46017 12.8136C2.81395 11.6463 1.584 9.98333 0.949931 8.06747C0.31586 6.15162 0.310876 4.08324 0.935707 2.16435C1.42428 0.66435 3.25714 0.361493 4.54428 1.27435L15.3214 8.91578Z" fill="#FFEDEE"/>
<path d="M13.8008 3.7999C14.378 2.98562 14.0008 1.72848 12.9565 0.987047C11.9137 0.247047 10.5994 0.305618 10.0222 1.11848M15.3208 8.91562C16.608 9.82848 16.9294 11.6585 15.6751 12.6156C14.0713 13.8413 12.1175 14.5218 10.0993 14.5579C8.08108 14.594 6.10423 13.9837 4.45761 12.8161C2.811 11.6486 1.58094 9.98507 0.947184 8.06861C0.313427 6.15214 0.309195 4.08323 0.935106 2.16419C1.42368 0.66419 3.25653 0.361333 4.54368 1.27419L15.3208 8.91562Z" stroke="#901C27" stroke-width="0.9375" stroke-linecap="round" stroke-linejoin="round"/>
</svg>
