<svg width="53" height="52" viewBox="0 0 53 52" fill="none" xmlns="http://www.w3.org/2000/svg">
<path d="M10.7871 25.8225V15.7716C10.8178 13.7959 11.2483 11.8456 12.054 10.0323C12.8598 8.219 14.0249 6.5784 15.4826 5.2045C16.9404 3.8306 18.6621 2.75042 20.5491 2.02582C22.4361 1.30123 24.4514 0.946486 26.4794 0.981906C28.5074 0.946486 30.5227 1.30123 32.4097 2.02582C34.2967 2.75042 36.0185 3.8306 37.4762 5.2045C38.9339 6.5784 40.0991 8.219 40.9048 10.0323C41.7106 11.8456 42.1411 13.7959 42.1717 15.7716V25.8225" stroke="#901C27" stroke-width="1.95833" stroke-linecap="round" stroke-linejoin="round"/>
<path d="M4.90159 20.0898H8.82467C9.3449 20.0898 9.84383 20.2912 10.2117 20.6495C10.5795 21.0079 10.7862 21.4939 10.7862 22.0007V33.4655C10.7862 33.9723 10.5795 34.4583 10.2117 34.8167C9.84383 35.175 9.3449 35.3764 8.82467 35.3764H4.90159C3.86113 35.3764 2.86328 34.9737 2.12756 34.257C1.39184 33.5403 0.978516 32.5683 0.978516 31.5547V23.9115C0.978516 22.8979 1.39184 21.9259 2.12756 21.2092C2.86328 20.4925 3.86113 20.0898 4.90159 20.0898ZM48.0554 35.3764H44.1324C43.6121 35.3764 43.1132 35.175 42.7453 34.8167C42.3775 34.4583 42.1708 33.9723 42.1708 33.4655V22.0007C42.1708 21.4939 42.3775 21.0079 42.7453 20.6495C43.1132 20.2912 43.6121 20.0898 44.1324 20.0898H48.0554C49.0959 20.0898 50.0938 20.4925 50.8295 21.2092C51.5652 21.9259 51.9785 22.8979 51.9785 23.9115V31.5547C51.9785 32.5683 51.5652 33.5403 50.8295 34.257C50.0938 34.9737 49.0959 35.3764 48.0554 35.3764Z" fill="#FFEDEE"/>
<path d="M34.3242 45.8864C36.4051 45.8864 38.4008 45.0812 39.8723 43.6478C41.3437 42.2144 42.1704 40.2703 42.1704 38.2432V29.6445" stroke="#901C27" stroke-width="1.95833" stroke-linecap="round" stroke-linejoin="round"/>
<path d="M34.3251 45.8864C34.3251 47.1534 33.8085 48.3684 32.8888 49.2643C31.9692 50.1601 30.7219 50.6634 29.4213 50.6634H23.5367C22.2361 50.6634 20.9888 50.1601 20.0691 49.2643C19.1495 48.3684 18.6328 47.1534 18.6328 45.8864C18.6328 44.6195 19.1495 43.4044 20.0691 42.5085C20.9888 41.6127 22.2361 41.1094 23.5367 41.1094H29.4213C30.7219 41.1094 31.9692 41.6127 32.8888 42.5085C33.8085 43.4044 34.3251 44.6195 34.3251 45.8864Z" fill="#FFEDEE"/>
<path d="M4.90159 20.0898H8.82467C9.3449 20.0898 9.84383 20.2912 10.2117 20.6495C10.5795 21.0079 10.7862 21.4939 10.7862 22.0007V33.4655C10.7862 33.9723 10.5795 34.4583 10.2117 34.8167C9.84383 35.175 9.3449 35.3764 8.82467 35.3764H4.90159C3.86113 35.3764 2.86328 34.9737 2.12756 34.257C1.39184 33.5403 0.978516 32.5683 0.978516 31.5547V23.9115C0.978516 22.8979 1.39184 21.9259 2.12756 21.2092C2.86328 20.4925 3.86113 20.0898 4.90159 20.0898ZM48.0554 35.3764H44.1324C43.6121 35.3764 43.1132 35.175 42.7453 34.8167C42.3775 34.4583 42.1708 33.9723 42.1708 33.4655V22.0007C42.1708 21.4939 42.3775 21.0079 42.7453 20.6495C43.1132 20.2912 43.6121 20.0898 44.1324 20.0898H48.0554C49.0959 20.0898 50.0938 20.4925 50.8295 21.2092C51.5652 21.9259 51.9785 22.8979 51.9785 23.9115V31.5547C51.9785 32.5683 51.5652 33.5403 50.8295 34.257C50.0938 34.9737 49.0959 35.3764 48.0554 35.3764ZM34.3247 45.8858C34.3247 47.1528 33.808 48.3678 32.8884 49.2637C31.9687 50.1596 30.7214 50.6629 29.4208 50.6629H23.5362C22.2356 50.6629 20.9883 50.1596 20.0687 49.2637C19.149 48.3678 18.6324 47.1528 18.6324 45.8858C18.6324 44.6189 19.149 43.4038 20.0687 42.508C20.9883 41.6121 22.2356 41.1088 23.5362 41.1088H29.4208C30.7214 41.1088 31.9687 41.6121 32.8884 42.508C33.808 43.4038 34.3247 44.6189 34.3247 45.8858Z" stroke="#901C27" stroke-width="1.95833" stroke-linecap="round" stroke-linejoin="round"/>
</svg>
