<svg width="24" height="24" viewBox="0 0 24 24" fill="none" xmlns="http://www.w3.org/2000/svg">
<g clip-path="url(#clip0_512_6753)">
<path d="M18.7506 20.9999H5.25063C5.12656 20.9999 5.00444 20.969 4.89521 20.9102C4.78599 20.8513 4.69307 20.7663 4.62479 20.6627C4.5565 20.5591 4.51498 20.4402 4.50395 20.3166C4.49291 20.193 4.51271 20.0687 4.56156 19.9546L9.00063 10.4999L6.8575 7.13617C6.78742 7.01952 6.75039 6.886 6.75039 6.74992C6.75039 6.61384 6.78742 6.48032 6.8575 6.36367L9.00063 3.30273L9.65688 4.12492C9.93791 4.47666 10.2945 4.76063 10.7002 4.95578C11.106 5.15093 11.5504 5.25227 12.0006 5.25227C12.4508 5.25227 12.8953 5.15093 13.301 4.95578C13.7067 4.76063 14.0633 4.47666 14.3444 4.12492L15.0006 3.30367L17.1438 6.36461C17.2138 6.48126 17.2509 6.61478 17.2509 6.75086C17.2509 6.88694 17.2138 7.02046 17.1438 7.13711L15.0006 10.4999L19.4388 19.9546C19.4876 20.0686 19.5074 20.1929 19.4964 20.3164C19.4854 20.4399 19.444 20.5587 19.3758 20.6623C19.3076 20.7659 19.2148 20.8509 19.1057 20.9098C18.9966 20.9688 18.8746 20.9997 18.7506 20.9999Z" fill="#FFEDEE"/>
<path d="M20.1284 19.6594C20.1255 19.6513 20.1221 19.6435 20.1181 19.6359L15.8543 10.5553L17.7762 7.53844L17.7865 7.52156C17.9263 7.28848 18.0002 7.02179 18.0002 6.75C18.0002 6.47821 17.9263 6.21152 17.7865 5.97844C17.7781 5.96344 17.7678 5.94844 17.7584 5.93437L15.7503 3.06563V0.75C15.7503 0.551088 15.6713 0.360322 15.5306 0.21967C15.39 0.0790176 15.1992 0 15.0003 0C14.8014 0 14.6106 0.0790176 14.4699 0.21967C14.3293 0.360322 14.2503 0.551088 14.2503 0.75V3.03937L13.7572 3.65625C13.5464 3.91971 13.279 4.13239 12.9749 4.27855C12.6708 4.4247 12.3377 4.50059 12.0003 4.50059C11.6629 4.50059 11.3298 4.4247 11.0257 4.27855C10.7215 4.13239 10.4542 3.91971 10.2434 3.65625L9.75028 3.03937V0.75C9.75028 0.551088 9.67126 0.360322 9.53061 0.21967C9.38995 0.0790176 9.19919 0 9.00028 0C8.80136 0 8.6106 0.0790176 8.46995 0.21967C8.32929 0.360322 8.25028 0.551088 8.25028 0.75V3.06563L6.24215 5.93437C6.23278 5.94844 6.22246 5.96344 6.21403 5.97844C6.07422 6.21152 6.00037 6.47821 6.00037 6.75C6.00037 7.02179 6.07422 7.28848 6.21403 7.52156L6.22434 7.53844L8.14621 10.5553L3.88246 19.6359C3.8785 19.6435 3.87505 19.6513 3.87215 19.6594C3.77444 19.8875 3.73485 20.1362 3.75692 20.3834C3.77899 20.6306 3.86203 20.8684 3.9986 21.0756C4.13517 21.2827 4.321 21.4528 4.53945 21.5705C4.7579 21.6882 5.00213 21.7499 5.25028 21.75H18.7503C18.9985 21.75 19.2428 21.6885 19.4614 21.5708C19.68 21.4532 19.866 21.2832 20.0026 21.076C20.1393 20.8687 20.2224 20.6309 20.2445 20.3836C20.2667 20.1364 20.2271 19.8875 20.1293 19.6594H20.1284ZM7.50028 6.75L9.04059 4.55344L9.07153 4.59281C9.42284 5.03214 9.86849 5.38681 10.3755 5.63054C10.8824 5.87427 11.4378 6.00082 12.0003 6.00082C12.5628 6.00082 13.1181 5.87427 13.6251 5.63054C14.1321 5.38681 14.5777 5.03214 14.929 4.59281L14.96 4.55344L16.5003 6.75L14.5897 9.75H9.41184L7.50028 6.75ZM5.25028 20.25L9.47559 11.25H14.5231L18.7503 20.25H5.25028Z" fill="#901C27"/>
</g>
<defs>
<clipPath id="clip0_512_6753">
<rect width="24" height="24" fill="white"/>
</clipPath>
</defs>
</svg>
