<svg width="26" height="26" viewBox="0 0 26 26" fill="none" xmlns="http://www.w3.org/2000/svg">
<g clip-path="url(#clip0_550_10620)">
<path d="M25.2576 12.4088C24.9206 11.9615 23.6688 11.6534 23.1392 10.8485C22.6096 10.0435 22.176 8.30015 20.8281 7.63032C19.4802 6.96049 16.9038 6.77246 15.4327 6.77246C13.9615 6.77246 11.387 6.95635 10.0372 7.62894C8.68747 8.30153 8.25578 10.0435 7.72617 10.8471C7.19655 11.6507 5.9447 11.9615 5.60772 12.4088C5.27073 12.8561 5.03351 15.6839 5.17787 17.0705C5.32222 18.457 5.59163 19.2772 5.59163 19.2772H9.54533C10.1926 19.2772 10.4032 19.034 11.7272 18.9094C13.18 18.7715 14.6052 18.7255 15.4327 18.7255C16.2602 18.7255 17.7313 18.7715 19.1832 18.9094C20.5072 19.0349 20.7247 19.2772 21.3651 19.2772H25.2728C25.2728 19.2772 25.5422 18.457 25.6866 17.0705C25.8309 15.6839 25.5928 12.8561 25.2576 12.4088ZM22.0528 19.2772H24.6273V20.0128H22.0528V19.2772ZM6.23801 19.2772H8.81252V20.0128H6.23801V19.2772Z" fill="#FFEDEE" stroke="#901C27" stroke-width="0.879357" stroke-linecap="round" stroke-linejoin="round"/>
<path d="M20.42 15.8367C20.1483 15.5227 19.2628 15.2606 18.0905 15.085C16.9182 14.9094 16.4906 14.8639 15.4424 14.8639C14.3942 14.8639 13.9175 14.9393 12.7939 15.085C11.6703 15.2307 10.8267 15.49 10.4649 15.8367C9.92194 16.3626 10.7173 16.9529 11.3416 17.0246C11.9466 17.0936 13.1562 17.0683 15.4475 17.0683C17.7388 17.0683 18.9483 17.0936 19.5534 17.0246C20.1768 16.9488 20.9151 16.3994 20.42 15.8367ZM23.5048 12.7974C23.5022 12.7609 23.4862 12.7266 23.4599 12.7011C23.4336 12.6757 23.3988 12.6608 23.3622 12.6595C22.8193 12.6401 22.2681 12.6788 21.2902 12.967C20.7914 13.1127 20.3229 13.3472 19.9074 13.6594C19.8025 13.7412 19.8398 13.9623 19.9713 13.9858C20.7772 14.0804 21.588 14.1279 22.3996 14.1283C22.8864 14.1283 23.3889 13.9904 23.4822 13.5564C23.5298 13.3062 23.5374 13.05 23.5048 12.7974ZM7.36169 12.7974C7.36427 12.7609 7.38024 12.7266 7.40655 12.7011C7.43285 12.6757 7.46763 12.6608 7.50421 12.6595C8.04715 12.6401 8.59837 12.6788 9.57622 12.967C10.0751 13.1127 10.5436 13.3472 10.9591 13.6594C11.0639 13.7412 11.0267 13.9623 10.8952 13.9858C10.0892 14.0804 9.2784 14.1279 8.46689 14.1283C7.98003 14.1283 7.47754 13.9904 7.38422 13.5564C7.33663 13.3062 7.32902 13.05 7.36169 12.7974Z" fill="#901C27"/>
<path d="M23.5237 10.4502H24.2592M6.60547 10.4502H7.34104M7.2491 11.3237C7.2491 11.3237 9.37996 10.772 15.4323 10.772C21.4847 10.772 23.6156 11.3237 23.6156 11.3237" stroke="#901C27" stroke-width="0.879357" stroke-linecap="round" stroke-linejoin="round"/>
<path d="M2.2163 6.98535C2.2163 6.47972 1.80641 6.06983 1.30078 6.06983C0.795154 6.06983 0.385261 6.47972 0.385261 6.98535L1.30078 6.98535L2.2163 6.98535ZM1.30078 6.98535L0.385261 6.98535L0.385261 20.2604L1.30078 20.2604L2.2163 20.2604L2.2163 6.98535L1.30078 6.98535Z" fill="#901C27"/>
<path d="M1.75781 9.73212L17.7794 1.9502" stroke="#901C27" stroke-width="0.570041" stroke-linecap="round"/>
</g>
<defs>
<clipPath id="clip0_550_10620">
<rect width="26" height="26" fill="white"/>
</clipPath>
</defs>
</svg>
