<svg width="24" height="24" viewBox="0 0 24 24" fill="none" xmlns="http://www.w3.org/2000/svg">
<path d="M10.5002 18.3002V5.81424C10.5002 4.22724 10.0442 2.92124 8.11722 3.00424C6.50922 3.07324 5.00122 3.89724 3.80522 4.89424C1.66322 6.67824 1.72522 8.76024 2.46922 11.2022L4.85322 19.0412C5.20622 20.2002 6.33522 21.0002 7.62022 21.0002C9.21022 21.0002 10.4992 19.7912 10.4992 18.3002M13.5002 18.3002V5.81424C13.5002 4.22724 13.9562 2.92124 15.8832 3.00424C17.4912 3.07324 18.9992 3.89724 20.1962 4.89424C22.3372 6.67824 22.2742 8.76024 21.5312 11.2022L19.1472 19.0412C18.7942 20.2002 17.6652 21.0002 16.3802 21.0002C14.7902 21.0002 13.5012 19.7912 13.5012 18.3002" fill="#FFEDEE"/>
<path d="M10.5002 18.3002V5.81424C10.5002 4.22724 10.0442 2.92124 8.11722 3.00424C6.50922 3.07324 5.00122 3.89724 3.80522 4.89424C1.66322 6.67824 1.72522 8.76024 2.46922 11.2022L4.85322 19.0412C5.20622 20.2002 6.33522 21.0002 7.62022 21.0002C9.21022 21.0002 10.4992 19.7912 10.4992 18.3002M13.5002 18.3002V5.81424C13.5002 4.22724 13.9562 2.92124 15.8832 3.00424C17.4912 3.07324 18.9992 3.89724 20.1962 4.89424C22.3372 6.67824 22.2742 8.76024 21.5312 11.2022L19.1472 19.0412C18.7942 20.2002 17.6652 21.0002 16.3802 21.0002C14.7902 21.0002 13.5012 19.7912 13.5012 18.3002" stroke="#901C27" stroke-width="1.5" stroke-linecap="round" stroke-linejoin="round"/>
<path d="M3 13C3 12 3.7 9.3 6.5 8.5M6.5 8.5C9 9 10 10 10.5 10.5M6.5 8.5V7M21 13C21 12 20.3 9.3 17.5 8.5M17.5 8.5C15 9 14 10 13.5 10.5M17.5 8.5V7" stroke="#901C27" stroke-width="1.5" stroke-linecap="round" stroke-linejoin="round"/>
</svg>
