<svg width="33" height="33" viewBox="0 0 33 33" fill="none" xmlns="http://www.w3.org/2000/svg">
<path d="M10.472 30.25C9.856 30.25 9.33167 30.0337 8.899 29.601C8.46633 29.1683 8.25 28.6445 8.25 28.0294V4.97063C8.25 4.33813 8.46221 3.81013 8.88662 3.38663C9.31104 2.96313 9.8395 2.75092 10.472 2.75H22.6353C23.2494 2.75 23.7733 2.96633 24.2069 3.399C24.6395 3.83167 24.8559 4.356 24.8559 4.972V9.39125C25.1978 9.42792 25.4948 9.57 25.7469 9.8175C25.999 10.0641 26.125 10.3611 26.125 10.7085V13.1409C26.125 13.4883 25.999 13.7853 25.7469 14.0319C25.4948 14.2785 25.1978 14.4205 24.8559 14.4581V28.028C24.8559 28.6422 24.6395 29.166 24.2069 29.5996C23.7742 30.0323 23.2503 30.2486 22.6353 30.2486L10.472 30.25ZM10.4599 29.3437L22.6353 29.3437C22.8818 29.3437 23.3109 29.1849 23.4695 29.0263C23.6281 28.8678 23.7868 28.321 23.7868 28.0744V4.91096C23.7868 4.66438 23.6281 4.28358 23.4695 4.125C23.3109 3.96642 22.8818 3.79217 22.6353 3.79217L10.3554 3.79217C10.1079 3.79217 9.87165 3.77123 9.625 4.01788C9.38747 4.25541 9.19063 4.59365 9.19063 4.91096V28.0744C9.19063 28.321 9.34936 28.8678 9.50794 29.0263C9.66652 29.1849 10.2124 29.3437 10.4599 29.3437ZM15.9184 22.3162L19.4095 15.3368H17.0816V10.6824L13.5919 17.6633H15.9184V22.3162Z" fill="#901C27"/>
<path fill-rule="evenodd" clip-rule="evenodd" d="M10.4599 29.3437L22.6353 29.3437C22.8818 29.3437 23.3109 29.1849 23.4695 29.0263C23.6281 28.8678 23.7868 28.321 23.7868 28.0744V4.91096C23.7868 4.66438 23.6281 4.28358 23.4695 4.125C23.3109 3.96642 22.8818 3.79217 22.6353 3.79217L10.3554 3.79217C10.1079 3.79217 9.87165 3.77123 9.625 4.01788C9.38747 4.25541 9.19063 4.59365 9.19063 4.91096V28.0744C9.19063 28.321 9.34936 28.8678 9.50794 29.0263C9.66652 29.1849 10.2124 29.3437 10.4599 29.3437ZM19.4095 15.3368L15.9184 22.3162V17.6633H13.5919L17.0816 10.6824V15.3368H19.4095Z" fill="#FFEDEE"/>
<path d="M14.5 9L12 8.74999L12.3571 7M12 8.74999C12 8.74999 15.0485 7.00001 17.3571 7C19.8571 6.99999 22 8.74999 22 8.74999" stroke="#901C27" stroke-linecap="round"/>
</svg>
