<svg width="20" height="20" viewBox="0 0 20 20" fill="none" xmlns="http://www.w3.org/2000/svg">
<g opacity="0.4">
<path d="M7.91602 11.4585C7.91602 12.2669 8.54103 12.9169 9.30769 12.9169H10.8743C11.541 12.9169 12.0827 12.3502 12.0827 11.6419C12.0827 10.8835 11.7494 10.6085 11.2577 10.4335L8.74935 9.55852C8.25768 9.38352 7.92436 9.11686 7.92436 8.35019C7.92436 7.65019 8.46601 7.0752 9.13268 7.0752H10.6993C11.466 7.0752 12.091 7.7252 12.091 8.53353" stroke="#901C27" stroke-width="0.9375" stroke-linecap="round" stroke-linejoin="round"/>
<path d="M10 6.25V13.75" stroke="#901C27" stroke-width="0.9375" stroke-linecap="round" stroke-linejoin="round"/>
</g>
<path d="M18.3327 9.99984C18.3327 14.5998 14.5993 18.3332 9.99935 18.3332C5.39935 18.3332 1.66602 14.5998 1.66602 9.99984C1.66602 5.39984 5.39935 1.6665 9.99935 1.6665" fill="#FFEDEE"/>
<path d="M18.3327 9.99984C18.3327 14.5998 14.5993 18.3332 9.99935 18.3332C5.39935 18.3332 1.66602 14.5998 1.66602 9.99984C1.66602 5.39984 5.39935 1.6665 9.99935 1.6665" stroke="#901C27" stroke-width="0.9375" stroke-linecap="round" stroke-linejoin="round"/>
<path d="M18.3333 4.99984V1.6665H15" stroke="#901C27" stroke-width="0.9375" stroke-linecap="round" stroke-linejoin="round"/>
<path d="M14.166 5.83317L18.3327 1.6665" stroke="#901C27" stroke-width="0.9375" stroke-linecap="round" stroke-linejoin="round"/>
<path d="M7.75643 10.9394V10.2041H9.20995C9.79136 10.2041 10.2132 10.0844 10.4754 9.845C10.7376 9.60559 10.8687 9.30064 10.8687 8.93013C10.8687 8.48552 10.7262 8.13497 10.4412 7.87846C10.1562 7.62196 9.72296 7.49656 9.14155 7.50226H7.10662V7.0149H12.5873V7.50226H10.3471L10.6122 7.26285C11.0169 7.41675 11.3019 7.64476 11.4672 7.94686C11.6382 8.24327 11.7237 8.57672 11.7237 8.94723C11.7237 9.36334 11.6239 9.72244 11.4244 10.0245C11.2249 10.321 10.9399 10.549 10.5694 10.7086C10.2046 10.8625 9.76001 10.9394 9.2356 10.9394H7.75643ZM10.9029 13L9.33821 10.6231H10.2616L11.8348 13H10.9029ZM7.10662 8.69073V8.20337H12.5873V8.69073H7.10662Z" fill="#901C27"/>
</svg>
