<svg width="20" height="20" viewBox="0 0 20 20" fill="none" xmlns="http://www.w3.org/2000/svg">
<g clip-path="url(#clip0_550_10580)">
<path d="M18.3346 9.99984C18.3346 14.5998 14.6013 18.3332 10.0013 18.3332C5.4013 18.3332 1.66797 14.5998 1.66797 9.99984C1.66797 5.39984 5.4013 1.6665 10.0013 1.6665" fill="#FFEDEE"/>
<path d="M18.3346 9.99984C18.3346 14.5998 14.6013 18.3332 10.0013 18.3332C5.4013 18.3332 1.66797 14.5998 1.66797 9.99984C1.66797 5.39984 5.4013 1.6665 10.0013 1.6665" stroke="#901C27" stroke-width="0.9375" stroke-linecap="round" stroke-linejoin="round"/>
<path d="M14.168 2.5V5.83333H17.5013" stroke="#901C27" stroke-width="0.9375" stroke-linecap="round" stroke-linejoin="round"/>
<path d="M18.3346 1.6665L14.168 5.83317" stroke="#901C27" stroke-width="0.9375" stroke-linecap="round" stroke-linejoin="round"/>
<path d="M7.57088 10.9394V10.2041H9.02441C9.60582 10.2041 10.0276 10.0844 10.2898 9.845C10.552 9.60559 10.6831 9.30064 10.6831 8.93013C10.6831 8.48552 10.5406 8.13497 10.2556 7.87846C9.97062 7.62196 9.53742 7.49656 8.95601 7.50226H6.92107V7.0149H12.4017V7.50226H10.1616L10.4266 7.26285C10.8313 7.41675 11.1163 7.64476 11.2816 7.94686C11.4526 8.24327 11.5381 8.57672 11.5381 8.94723C11.5381 9.36334 11.4384 9.72244 11.2389 10.0245C11.0394 10.321 10.7544 10.549 10.3839 10.7086C10.0191 10.8625 9.57447 10.9394 9.05006 10.9394H7.57088ZM10.7173 13L9.15266 10.6231H10.0761L11.6493 13H10.7173ZM6.92107 8.69073V8.20337H12.4017V8.69073H6.92107Z" fill="#901C27"/>
</g>
<defs>
<clipPath id="clip0_550_10580">
<rect width="20" height="20" fill="white"/>
</clipPath>
</defs>
</svg>
