<svg width="54" height="54" viewBox="0 0 54 54" fill="none" xmlns="http://www.w3.org/2000/svg">
<mask id="path-1-inside-1_512_6793" fill="white">
<path d="M0 9.30853C0 4.16757 4.16757 0 9.30853 0H44.6915C49.8324 0 54 4.16757 54 9.30853V44.6915C54 49.8324 49.8324 54 44.6915 54H9.30853C4.16757 54 0 49.8324 0 44.6915V9.30853Z"/>
</mask>
<path d="M0 9.30853C0 4.16757 4.16757 0 9.30853 0H44.6915C49.8324 0 54 4.16757 54 9.30853V44.6915C54 49.8324 49.8324 54 44.6915 54H9.30853C4.16757 54 0 49.8324 0 44.6915V9.30853Z" fill="white"/>
<path d="M9.30853 0V0.918605H44.6915V0V-0.918605H9.30853V0ZM54 9.30853H53.0814V44.6915H54H54.9186V9.30853H54ZM44.6915 54V53.0814H9.30853V54V54.9186H44.6915V54ZM0 44.6915H0.918605V9.30853H0H-0.918605V44.6915H0ZM9.30853 54V53.0814C4.6749 53.0814 0.918605 49.3251 0.918605 44.6915H0H-0.918605C-0.918605 50.3398 3.66024 54.9186 9.30853 54.9186V54ZM54 44.6915H53.0814C53.0814 49.3251 49.3251 53.0814 44.6915 53.0814V54V54.9186C50.3398 54.9186 54.9186 50.3398 54.9186 44.6915H54ZM44.6915 0V0.918605C49.3251 0.918605 53.0814 4.6749 53.0814 9.30853H54H54.9186C54.9186 3.66024 50.3398 -0.918605 44.6915 -0.918605V0ZM9.30853 0V-0.918605C3.66024 -0.918605 -0.918605 3.66024 -0.918605 9.30853H0H0.918605C0.918605 4.6749 4.6749 0.918605 9.30853 0.918605V0Z" fill="black" fill-opacity="0.08" mask="url(#path-1-inside-1_512_6793)"/>
<path d="M42.4318 41.1465C42.4726 41.5146 42.4349 41.8871 42.3214 42.2397C42.2079 42.5922 42.021 42.9168 41.7731 43.1919C41.5252 43.4671 41.2219 43.6867 40.8831 43.8363C40.5443 43.9858 40.1776 44.062 39.8072 44.0597H14.1913C13.8209 44.062 13.4543 43.9858 13.1155 43.8363C12.7766 43.6867 12.4733 43.4671 12.2254 43.1919C11.9775 42.9168 11.7906 42.5922 11.6771 42.2397C11.5636 41.8871 11.526 41.5146 11.5667 41.1465L13.8763 20.4385H40.1222L42.4318 41.1465Z" fill="#FFEDEE"/>
<path d="M20.4378 20.4393V16.5024C20.4378 14.7622 21.1291 13.0932 22.3596 11.8627C23.5901 10.6322 25.2591 9.94092 26.9993 9.94092C28.7395 9.94092 30.4084 10.6322 31.6389 11.8627C32.8694 13.0932 33.5607 14.7622 33.5607 16.5024V20.4393M42.4318 41.1472C42.4726 41.5154 42.435 41.8879 42.3214 42.2405C42.2079 42.593 42.021 42.9175 41.7731 43.1927C41.5252 43.4679 41.2219 43.6875 40.8831 43.837C40.5443 43.9866 40.1776 44.0628 39.8072 44.0605H14.1913C13.8209 44.0628 13.4543 43.9866 13.1155 43.837C12.7766 43.6875 12.4733 43.4679 12.2254 43.1927C11.9775 42.9175 11.7906 42.593 11.6771 42.2405C11.5636 41.8879 11.526 41.5154 11.5667 41.1472L13.8763 20.4393H40.1222L42.4318 41.1472Z" stroke="#901C27" stroke-width="1.5" stroke-linecap="round" stroke-linejoin="round"/>
</svg>
