<svg width="14" height="16" viewBox="0 0 14 16" fill="none" xmlns="http://www.w3.org/2000/svg">
<path fill-rule="evenodd" clip-rule="evenodd" d="M2.42702 1.09208C3.44952 0.591667 5.12702 0 6.96286 0C8.76036 0 10.3937 0.567083 11.4108 1.06083L11.4683 1.08875C11.7749 1.24042 12.0224 1.38375 12.1966 1.5L10.6574 3.75C14.2058 7.3775 16.9466 14.9988 6.96286 14.9988C-3.02089 14.9988 -0.35381 7.51583 3.22536 3.75L1.69619 1.5C1.81411 1.42292 1.96369 1.33333 2.14202 1.23833C2.23036 1.19083 2.32536 1.14181 2.42702 1.09208ZM9.66827 3.72042L10.9004 1.91917C9.75452 2.00167 8.39119 2.27083 7.07869 2.65083C6.14119 2.92167 5.09952 2.88042 4.13494 2.7025C3.89186 2.65749 3.65045 2.60385 3.41119 2.54167L4.21119 3.71958C5.92577 4.33 7.95327 4.33 9.66827 3.72042ZM3.72994 4.42917C5.73619 5.20417 8.14744 5.20417 10.1537 4.42833C10.9909 5.3113 11.6914 6.31447 12.232 7.40458C12.7954 8.55375 13.102 9.7025 13.052 10.6925C13.0037 11.6479 12.6279 12.4642 11.7695 13.0708C10.8749 13.7029 9.37036 14.1654 6.96244 14.1654C4.55202 14.1654 3.04036 13.7108 2.13744 13.0858C1.27286 12.4871 0.893273 11.6817 0.839523 10.7392C0.783273 9.76 1.08327 8.61708 1.64452 7.46C2.17994 6.35667 2.92702 5.29458 3.72994 4.42917ZM3.25077 1.63167C3.58411 1.73083 3.93244 1.81708 4.28577 1.8825C5.18161 2.0475 6.07994 2.07167 6.84661 1.84958C7.74 1.58921 8.64869 1.38451 9.56744 1.23667C8.80077 1.00583 7.90411 0.833333 6.96244 0.833333C5.52702 0.833333 4.18827 1.23375 3.25077 1.63167Z" fill="#901C27"/>
<path d="M3.72994 4.42917C5.73619 5.20417 8.14744 5.20417 10.1537 4.42833C10.9909 5.3113 11.6914 6.31447 12.232 7.40458C12.7954 8.55375 13.102 9.7025 13.052 10.6925C13.0037 11.6479 12.6279 12.4642 11.7695 13.0708C10.8749 13.7029 9.37036 14.1654 6.96244 14.1654C4.55202 14.1654 3.04036 13.7108 2.13744 13.0858C1.27286 12.4871 0.893273 11.6817 0.839523 10.7392C0.783273 9.76 1.08327 8.61708 1.64452 7.46C2.17994 6.35667 2.92702 5.29458 3.72994 4.42917Z" fill="#FFEDEE"/>
<path d="M4.86153 10.7706V10.0108H6.3635C6.96429 10.0108 7.40016 9.88712 7.6711 9.63973C7.94205 9.39235 8.07752 9.07723 8.07752 8.69437C8.07752 8.23494 7.93027 7.8727 7.63576 7.60765C7.34126 7.34259 6.89361 7.21301 6.29282 7.2189H4.19005V6.7153H9.85339V7.2189H7.53858L7.81247 6.97152C8.23066 7.13055 8.52517 7.36615 8.69598 7.67833C8.87268 7.98461 8.96104 8.32918 8.96104 8.71204C8.96104 9.14202 8.85796 9.51309 8.65181 9.82527C8.44565 10.1316 8.15115 10.3672 7.76829 10.5321C7.39132 10.6911 6.9319 10.7706 6.39001 10.7706H4.86153ZM8.11286 12.8999L6.49603 10.4437H7.45023L9.07589 12.8999H8.11286ZM4.19005 8.44699V7.94338H9.85339V8.44699H4.19005Z" fill="#901C27"/>
</svg>
