<svg width="145" height="132" viewBox="0 0 145 132" fill="none" xmlns="http://www.w3.org/2000/svg">
<path d="M65.8888 24.4857C69.2125 22.0624 73.7207 22.0624 77.0444 24.4857L83.2645 29.0209C84.7068 30.0724 86.417 30.6949 88.1977 30.8164L95.8778 31.3405C99.9816 31.6206 103.435 34.5184 104.423 38.5112L106.273 45.9836C106.702 47.7162 107.612 49.2922 108.898 50.53L114.444 55.8681C117.408 58.7206 118.191 63.1602 116.382 66.8543L112.996 73.7674C112.21 75.3704 111.894 77.1626 112.084 78.9375L112.901 86.5918C113.338 90.6819 111.084 94.5861 107.324 96.2529L100.286 99.3721C98.6541 100.095 97.26 101.265 96.2644 102.747L91.9705 109.136C89.676 112.55 85.4397 114.092 81.4876 112.951L74.0915 110.817C72.3765 110.322 70.5566 110.322 68.8417 110.817L61.4456 112.951C57.4935 114.092 53.2572 112.55 50.9627 109.136L46.6688 102.747C45.6732 101.265 44.279 100.095 42.6472 99.3721L35.6096 96.2529C31.8491 94.5861 29.595 90.6819 30.0318 86.5918L30.8493 78.9375C31.0388 77.1626 30.7228 75.3704 29.9377 73.7674L26.5516 66.8543C24.7422 63.1602 25.525 58.7206 28.4887 55.8681L34.0351 50.53C35.3211 49.2923 36.231 47.7162 36.6599 45.9836L38.5097 38.5112C39.4982 34.5184 42.9516 31.6206 47.0554 31.3405L54.7355 30.8164C56.5162 30.6949 58.2264 30.0724 59.6686 29.0209L65.8888 24.4857Z" fill="#069341"/>
<path d="M56.5879 68.4176L66.1144 78.0286C66.4165 78.3334 66.9074 78.3392 67.2166 78.0417L86.3436 59.6426" stroke="white" stroke-width="6.28274" stroke-linecap="round"/>
<path d="M89.9213 0L91.5122 4.58583L95.8114 6.28274L91.5122 7.97964L89.9213 12.5655L88.3305 7.97964L84.0312 6.28274L88.3305 4.58583L89.9213 0Z" fill="#069341"/>
<path d="M3.14137 84.0317L3.98982 86.6113L6.28274 87.5658L3.98982 88.5203L3.14137 91.0998L2.29291 88.5203L0 87.5658L2.29291 86.6113L3.14137 84.0317Z" fill="#069341"/>
<path d="M141.362 106.807L142.211 109.386L144.503 110.341L142.211 111.295L141.362 113.875L140.514 111.295L138.221 110.341L140.514 109.386L141.362 106.807Z" fill="#27AE60" fill-opacity="0.5"/>
<circle cx="53.7956" cy="129.189" r="2.7487" fill="#069341"/>
<circle cx="6.67643" cy="23.1676" r="2.7487" fill="#069341" fill-opacity="0.5"/>
<circle cx="138.614" cy="56.9372" r="2.7487" fill="#069341"/>
</svg>
