<svg width="47" height="47" viewBox="0 0 47 47" fill="none" xmlns="http://www.w3.org/2000/svg">
<rect width="47" height="47" rx="12.9198" fill="white"/>
<path d="M27.2443 40.037H29.2212C31.0001 40.037 32.5368 39.9235 33.5477 39.6812C35.5112 39.1974 36.7352 37.8313 36.7352 36.0809C36.7338 35.7336 36.681 35.3885 36.5785 35.0566C37.5603 34.3451 38.1146 33.2492 38.1146 32.0683C38.1146 31.4854 38.0011 30.9159 37.788 30.446C38.4425 29.7775 38.8408 28.7952 38.8408 27.7564C38.8408 27.0879 38.6708 26.3763 38.3714 25.8639C38.7843 25.281 39.012 24.4978 39.012 23.6296C39.012 21.5095 37.3605 19.8307 35.241 19.8307H29.8617C29.5205 19.8307 29.2928 19.6741 29.2928 19.3893C29.2928 17.8387 31.7117 14.2383 31.7117 11.3495C31.7117 9.38603 30.3456 7.96289 28.4531 7.96289C27.0585 7.96289 26.1193 8.68843 25.1946 10.4534C23.4582 13.783 21.4091 16.7288 18.0224 20.855H15.3188C11.8041 20.855 8.98633 24.8257 8.98633 29.678C8.98633 34.4732 12.0888 38.4572 15.8592 38.4572H20.5554C22.4339 39.4396 24.7113 40.037 27.2443 40.037ZM29.2352 37.8884L27.2577 37.8598C21.2955 37.8173 17.2544 34.4446 17.2544 29.6063C17.2544 26.533 17.9374 24.5689 19.8724 21.9794C22.0217 19.1191 24.9809 15.6894 27.1156 11.4351C27.6845 10.2967 27.9838 10.1116 28.4531 10.1116C29.1502 10.1116 29.563 10.553 29.563 11.3501C29.563 13.6549 27.1441 17.1556 27.1441 19.3893C27.1441 20.9976 28.4817 21.9794 30.175 21.9794H35.241C36.1803 21.9794 36.8633 22.691 36.8633 23.6302C36.8633 24.3132 36.6496 24.754 36.0947 25.295C35.9526 25.4371 35.8809 25.5797 35.8809 25.7358C35.8809 25.8499 35.9234 25.978 36.0236 26.0916C36.4929 26.7746 36.6921 27.2014 36.6921 27.7564C36.6921 28.44 36.3648 29.0089 35.7243 29.5067C35.4541 29.7059 35.3114 29.9336 35.3114 30.1758C35.3114 30.2608 35.326 30.361 35.3831 30.4606C35.3906 30.4748 35.398 30.4889 35.4054 30.5028C35.8021 31.2546 35.9659 31.5652 35.9659 32.0683C35.9659 32.8369 35.4827 33.4204 34.4584 33.9468C34.2447 34.0603 34.1166 34.2315 34.1166 34.4446C34.1166 34.5296 34.1451 34.6152 34.1876 34.7148C34.5434 35.583 34.5859 35.7251 34.5859 36.0809C34.5859 36.7785 34.0741 37.3334 33.0353 37.5896C32.1956 37.8027 30.8574 37.9023 29.2352 37.8884ZM15.8604 36.3086C13.3414 36.3086 11.1356 33.2777 11.1356 29.678C11.1356 26.0066 13.1137 23.0036 15.3194 23.0036H16.6284C15.5611 24.9963 15.1057 27.0879 15.1057 29.5638C15.1057 32.2389 16.0735 34.5442 17.7954 36.3092L15.8604 36.3086Z" fill="#901C27"/>
<path d="M29.2352 37.8884L27.2577 37.8598C21.2955 37.8173 17.2544 34.4446 17.2544 29.6063C17.2544 26.533 17.9374 24.5689 19.8724 21.9794C22.0217 19.1191 24.9809 15.6894 27.1156 11.4351C27.6845 10.2967 27.9838 10.1116 28.4531 10.1116C29.1502 10.1116 29.563 10.553 29.563 11.3501C29.563 13.6549 27.1441 17.1556 27.1441 19.3893C27.1441 20.9976 28.4817 21.9794 30.175 21.9794H35.241C36.1803 21.9794 36.8633 22.691 36.8633 23.6302C36.8633 24.3132 36.6496 24.754 36.0947 25.295C35.9526 25.4371 35.8809 25.5797 35.8809 25.7358C35.8809 25.8499 35.9234 25.978 36.0236 26.0916C36.4929 26.7746 36.6921 27.2014 36.6921 27.7564C36.6921 28.44 36.3648 29.0089 35.7243 29.5067C35.4541 29.7059 35.3114 29.9336 35.3114 30.1758C35.3114 30.2608 35.326 30.361 35.3831 30.4606L35.4054 30.5028C35.8021 31.2546 35.9659 31.5652 35.9659 32.0683C35.9659 32.8369 35.4827 33.4204 34.4584 33.9468C34.2447 34.0603 34.1166 34.2315 34.1166 34.4446C34.1166 34.5296 34.1451 34.6152 34.1876 34.7148C34.5434 35.583 34.5859 35.7251 34.5859 36.0809C34.5859 36.7785 34.0741 37.3334 33.0353 37.5896C32.1956 37.8027 30.8574 37.9023 29.2352 37.8884Z" fill="#FFEDEE"/>
</svg>
