<svg width="37" height="37" viewBox="0 0 37 37" fill="none" xmlns="http://www.w3.org/2000/svg">
<g clip-path="url(#clip0_512_6803)">
<path d="M1.3125 28.8708C1.3125 29.5659 1.5883 30.2327 2.07937 30.7248C2.57044 31.2168 3.23666 31.494 3.93184 31.4954H32.8128C33.5079 31.494 34.1742 31.2168 34.6652 30.7248C35.1563 30.2327 35.4321 29.5659 35.4321 28.8708V23.5324C34.2989 23.2251 33.2983 22.5533 32.5849 21.6207C31.8716 20.6881 31.485 19.5466 31.485 18.3724C31.485 17.1983 31.8716 16.0568 32.5849 15.1242C33.2983 14.1916 34.2989 13.5198 35.4321 13.2125V7.8741C35.4321 7.17892 35.1563 6.51214 34.6652 6.02009C34.1742 5.52803 33.5079 5.2509 32.8128 5.24951H3.93184C3.23666 5.2509 2.57044 5.52803 2.07937 6.02009C1.5883 6.51214 1.3125 7.17892 1.3125 7.8741V13.202C2.45477 13.5024 3.4654 14.1727 4.18657 15.1081C4.90775 16.0434 5.29888 17.1913 5.29888 18.3724C5.29888 19.5536 4.90775 20.7014 4.18657 21.6368C3.4654 22.5722 2.45477 23.2424 1.3125 23.5429V28.8708Z" fill="#FFEDEE"/>
<path d="M11.8633 24.9339L24.9863 11.811M1.3125 28.8708C1.3125 29.5659 1.5883 30.2327 2.07937 30.7248C2.57044 31.2168 3.23666 31.494 3.93184 31.4954H32.8128C33.5079 31.494 34.1742 31.2168 34.6652 30.7248C35.1563 30.2327 35.4321 29.5659 35.4321 28.8708V23.5324C34.2989 23.2251 33.2983 22.5533 32.5849 21.6207C31.8716 20.6881 31.485 19.5466 31.485 18.3724C31.485 17.1983 31.8716 16.0568 32.5849 15.1242C33.2983 14.1916 34.2989 13.5198 35.4321 13.2125V7.8741C35.4321 7.17892 35.1563 6.51214 34.6652 6.02009C34.1742 5.52803 33.5079 5.2509 32.8128 5.24951H3.93184C3.23666 5.2509 2.57044 5.52803 2.07937 6.02009C1.5883 6.51214 1.3125 7.17892 1.3125 7.8741V13.202C2.45477 13.5024 3.4654 14.1727 4.18657 15.1081C4.90775 16.0434 5.29888 17.1913 5.29888 18.3724C5.29888 19.5536 4.90775 20.7014 4.18657 21.6368C3.4654 22.5722 2.45477 23.2424 1.3125 23.5429V28.8708Z" stroke="#901C27" stroke-width="1.5" stroke-linecap="round" stroke-linejoin="round"/>
<path d="M13.1756 14.4346C13.5236 14.4346 13.8574 14.2964 14.1035 14.0503C14.3496 13.8042 14.4879 13.4704 14.4879 13.1224C14.4879 12.7743 14.3496 12.4405 14.1035 12.1944C13.8574 11.9483 13.5236 11.8101 13.1756 11.8101C12.8275 11.8101 12.4937 11.9483 12.2476 12.1944C12.0015 12.4405 11.8633 12.7743 11.8633 13.1224C11.8633 13.4704 12.0015 13.8042 12.2476 14.0503C12.4937 14.2964 12.8275 14.4346 13.1756 14.4346ZM23.6739 24.933C24.022 24.933 24.3557 24.7947 24.6018 24.5486C24.8479 24.3025 24.9862 23.9687 24.9862 23.6207C24.9862 23.2726 24.8479 22.9389 24.6018 22.6928C24.3557 22.4467 24.022 22.3084 23.6739 22.3084C23.3259 22.3084 22.9921 22.4467 22.746 22.6928C22.4999 22.9389 22.3616 23.2726 22.3616 23.6207C22.3616 23.9687 22.4999 24.3025 22.746 24.5486C22.9921 24.7947 23.3259 24.933 23.6739 24.933Z" stroke="#901C27" stroke-width="1.5" stroke-linecap="round" stroke-linejoin="round"/>
</g>
<defs>
<clipPath id="clip0_512_6803">
<rect width="36.7442" height="36.7442" fill="white"/>
</clipPath>
</defs>
</svg>
