<svg width="20" height="20" viewBox="0 0 20 20" fill="none" xmlns="http://www.w3.org/2000/svg">
<path d="M6.66602 18.3332C7.9921 18.3332 9.26387 17.8064 10.2015 16.8687C11.1392 15.931 11.666 14.6593 11.666 13.3332C11.666 12.0071 11.1392 10.7353 10.2015 9.79764C9.26387 8.85996 7.9921 8.33317 6.66602 8.33317C5.33993 8.33317 4.06816 8.85996 3.13048 9.79764C2.1928 10.7353 1.66602 12.0071 1.66602 13.3332C1.66602 14.6593 2.1928 15.931 3.13048 16.8687C4.06816 17.8064 5.33993 18.3332 6.66602 18.3332Z" fill="#FFEDEE"/>
<path d="M8.33268 5.85567C8.547 4.61344 9.21935 3.49673 10.2169 2.72609C11.2145 1.95545 12.4648 1.58691 13.7209 1.69326C14.977 1.79961 16.1476 2.37311 17.0014 3.30051C17.8552 4.2279 18.3303 5.44176 18.3327 6.70234C18.3325 7.89109 17.9119 9.04146 17.1452 9.94995C16.3786 10.8584 15.3153 11.4665 14.1435 11.6665M1.66602 7.49984C1.66602 4.73567 3.90185 2.49984 6.66602 2.49984L5.95185 3.92817M18.3327 12.4998C18.3327 15.264 16.0968 17.4998 13.3327 17.4998L14.0468 16.0715M6.66602 18.3332C7.9921 18.3332 9.26387 17.8064 10.2015 16.8687C11.1392 15.931 11.666 14.6593 11.666 13.3332C11.666 12.0071 11.1392 10.7353 10.2015 9.79764C9.26387 8.85996 7.9921 8.33317 6.66602 8.33317C5.33993 8.33317 4.06816 8.85996 3.13048 9.79764C2.1928 10.7353 1.66602 12.0071 1.66602 13.3332C1.66602 14.6593 2.1928 15.931 3.13048 16.8687C4.06816 17.8064 5.33993 18.3332 6.66602 18.3332Z" stroke="#901C27" stroke-width="1.25" stroke-linecap="round" stroke-linejoin="round"/>
<path d="M4.87354 14.8091V14.1759H6.12518C6.62584 14.1759 6.98906 14.0728 7.21485 13.8667C7.44064 13.6605 7.55353 13.3979 7.55353 13.0789C7.55353 12.696 7.43082 12.3942 7.1854 12.1733C6.93998 11.9524 6.56694 11.8444 6.06628 11.8493H4.31398V11.4297H9.03342V11.8493H7.10441L7.33265 11.6432C7.68115 11.7757 7.92657 11.972 8.06892 12.2322C8.21617 12.4874 8.2898 12.7746 8.2898 13.0936C8.2898 13.4519 8.2039 13.7612 8.0321 14.0213C7.86031 14.2765 7.61489 14.4729 7.29584 14.6103C6.9817 14.7428 6.59885 14.8091 6.14727 14.8091H4.87354ZM7.58298 16.5835L6.23562 14.5367H7.03079L8.38551 16.5835H7.58298ZM4.31398 12.8727V12.4531H9.03342V12.8727H4.31398Z" fill="#901C27"/>
<path d="M11.1235 8.14211V7.50893H12.3752C12.8758 7.50893 13.2391 7.40585 13.4649 7.19969C13.6906 6.99354 13.8035 6.73094 13.8035 6.41189C13.8035 6.02904 13.6808 5.72717 13.4354 5.50629C13.19 5.28541 12.8169 5.17743 12.3163 5.18234H10.564V4.76267H15.2834V5.18234H13.3544L13.5827 4.97618C13.9312 5.10871 14.1766 5.30505 14.3189 5.56519C14.4662 5.82043 14.5398 6.10757 14.5398 6.42662C14.5398 6.78493 14.4539 7.09416 14.2821 7.35431C14.1103 7.60955 13.8649 7.80588 13.5458 7.94332C13.2317 8.07585 12.8488 8.14211 12.3973 8.14211H11.1235ZM13.833 9.9165L12.4856 7.86969H13.2808L14.6355 9.9165H13.833ZM10.564 6.20574V5.78607H15.2834V6.20574H10.564Z" fill="#901C27"/>
</svg>
