<svg width="31" height="33" viewBox="0 0 31 33" fill="none" xmlns="http://www.w3.org/2000/svg">
<path d="M18.258 32.0741H20.2349C22.0138 32.0741 23.5505 31.9606 24.5614 31.7184C26.5249 31.2345 27.7489 29.8684 27.7489 28.118C27.7474 27.7707 27.6946 27.4256 27.5922 27.0938C28.574 26.3822 29.1283 25.2863 29.1283 24.1054C29.1283 23.5225 29.0148 22.953 28.8016 22.4831C29.4561 21.8146 29.8544 20.8323 29.8544 19.7935C29.8544 19.125 29.6844 18.4134 29.3851 17.901C29.798 17.3181 30.0256 16.5349 30.0256 15.6667C30.0256 13.5466 28.3742 11.8678 26.2547 11.8678H20.8754C20.5342 11.8678 20.3065 11.7112 20.3065 11.4264C20.3065 9.87579 22.7254 6.27543 22.7254 3.38664C22.7254 1.42314 21.3593 0 19.4668 0C18.0722 0 17.133 0.725536 16.2083 2.4905C14.4719 5.82007 12.4228 8.76593 9.03611 12.8921H6.3325C2.81775 12.8921 0 16.8628 0 21.7151C0 26.5103 3.1025 30.4944 6.87286 30.4944H11.5691C13.4476 31.4767 15.725 32.0741 18.258 32.0741ZM20.2488 29.9255L18.2714 29.8969C12.3092 29.8544 8.26807 26.4818 8.26807 21.6434C8.26807 18.5701 8.95111 16.606 10.8861 14.0165C13.0354 11.1562 15.9946 7.7265 18.1293 3.47225C18.6982 2.33386 18.9975 2.14868 19.4668 2.14868C20.1638 2.14868 20.5767 2.59007 20.5767 3.38725C20.5767 5.69196 18.1578 9.19275 18.1578 11.4264C18.1578 13.0347 19.4954 14.0165 21.1887 14.0165H26.2547C27.1939 14.0165 27.877 14.7281 27.877 15.6673C27.877 16.3504 27.6632 16.7911 27.1083 17.3321C26.9663 17.4742 26.8946 17.6169 26.8946 17.7729C26.8946 17.887 26.9371 18.0151 27.0373 18.1287C27.5066 18.8117 27.7057 19.2385 27.7057 19.7935C27.7057 20.4771 27.3785 21.046 26.738 21.5439C26.4678 21.743 26.3251 21.9707 26.3251 22.2129C26.3251 22.2979 26.3397 22.3981 26.3968 22.4977C26.4043 22.5119 26.4117 22.526 26.4191 22.5399C26.8157 23.2917 26.9796 23.6023 26.9796 24.1054C26.9796 24.874 26.4963 25.4575 25.4721 25.9839C25.2584 26.0974 25.1302 26.2686 25.1302 26.4818C25.1302 26.5667 25.1588 26.6524 25.2013 26.7519C25.5571 27.6201 25.5996 27.7622 25.5996 28.118C25.5996 28.8156 25.0878 29.3705 24.0489 29.6268C23.2093 29.8399 21.8711 29.9394 20.2488 29.9255ZM6.87407 28.3457C4.35504 28.3457 2.14929 25.3148 2.14929 21.7151C2.14929 18.0437 4.12736 15.0407 6.33311 15.0407H7.64211C6.57475 17.0334 6.11939 19.125 6.11939 21.6009C6.11939 24.276 7.08718 26.5813 8.80904 28.3463L6.87407 28.3457Z" fill="#901C27"/>
<path d="M20.2488 29.9255L18.2714 29.8969C12.3092 29.8544 8.26807 26.4818 8.26807 21.6434C8.26807 18.5701 8.95111 16.606 10.8861 14.0165C13.0354 11.1562 15.9946 7.7265 18.1293 3.47225C18.6982 2.33386 18.9975 2.14868 19.4668 2.14868C20.1638 2.14868 20.5767 2.59007 20.5767 3.38725C20.5767 5.69196 18.1578 9.19275 18.1578 11.4264C18.1578 13.0347 19.4954 14.0165 21.1887 14.0165H26.2547C27.1939 14.0165 27.877 14.7281 27.877 15.6673C27.877 16.3504 27.6632 16.7911 27.1083 17.3321C26.9663 17.4742 26.8946 17.6169 26.8946 17.7729C26.8946 17.887 26.9371 18.0151 27.0373 18.1287C27.5066 18.8117 27.7057 19.2385 27.7057 19.7935C27.7057 20.4771 27.3785 21.046 26.738 21.5439C26.4678 21.743 26.3251 21.9707 26.3251 22.2129C26.3251 22.2979 26.3397 22.3981 26.3968 22.4977L26.4191 22.5399C26.8157 23.2917 26.9796 23.6023 26.9796 24.1054C26.9796 24.874 26.4963 25.4575 25.4721 25.9839C25.2584 26.0974 25.1302 26.2686 25.1302 26.4818C25.1302 26.5667 25.1588 26.6524 25.2013 26.7519C25.5571 27.6201 25.5996 27.7622 25.5996 28.118C25.5996 28.8156 25.0878 29.3705 24.0489 29.6268C23.2093 29.8399 21.8711 29.9394 20.2488 29.9255Z" fill="#FFEDEE"/>
</svg>
