<svg width="17" height="17" viewBox="0 0 17 17" fill="none" xmlns="http://www.w3.org/2000/svg">
<path d="M10.6191 0.779384C10.8532 0.725586 11.0981 0.746005 11.3201 0.837804C11.542 0.929603 11.7298 1.08823 11.8575 1.29165L13.0068 3.1268C13.0995 3.27461 13.2244 3.39953 13.3722 3.49221L15.2072 4.64164C15.411 4.76922 15.57 4.95719 15.662 5.17937C15.754 5.40156 15.7745 5.6469 15.7205 5.88126L15.2349 7.99047C15.1957 8.16093 15.1957 8.33806 15.2349 8.50852L15.7205 10.6189C15.774 10.8529 15.7532 11.0977 15.6612 11.3195C15.5693 11.5412 15.4106 11.7288 15.2072 11.8562L13.3722 13.0068C13.2244 13.0995 13.0995 13.2244 13.0068 13.3722L11.8575 15.2073C11.73 15.411 11.5422 15.5698 11.3203 15.6618C11.0983 15.7539 10.8533 15.7744 10.6191 15.7208L8.50893 15.2351C8.33885 15.1961 8.16216 15.1961 7.99208 15.2351L5.8819 15.7208C5.64774 15.7744 5.40266 15.7539 5.18073 15.6618C4.95881 15.5698 4.77105 15.411 4.64355 15.2073L3.49422 13.3722C3.40122 13.2243 3.27591 13.0993 3.12769 13.0068L1.29386 11.8573C1.09024 11.7298 0.931395 11.5421 0.839392 11.3201C0.747388 11.0982 0.726797 10.8531 0.780479 10.6189L1.26495 8.50852C1.30413 8.33806 1.30413 8.16093 1.26495 7.99047L0.779323 5.88126C0.725491 5.64678 0.746127 5.40135 0.838355 5.17915C0.930584 4.95696 1.08981 4.76906 1.29386 4.64164L3.12769 3.49221C3.27591 3.39967 3.40122 3.27474 3.49422 3.1268L4.64355 1.29165C4.77114 1.08845 4.95878 0.929969 5.18045 0.838182C5.40213 0.746395 5.64687 0.725846 5.88075 0.779384L7.99208 1.2639C8.16216 1.3029 8.33885 1.3029 8.50893 1.2639L10.6191 0.779384Z" fill="#FFEDEE" stroke="#901C27" stroke-width="1.5"/>
<path d="M5.37695 8.86935L7.72994 11.1231L11.1236 5.37598" fill="#FFEDEE"/>
<path d="M5.37695 8.86935L7.72994 11.1231L11.1236 5.37598" stroke="#901C27" stroke-width="1.5" stroke-linecap="round" stroke-linejoin="round"/>
</svg>
