<svg width="20" height="20" viewBox="0 0 20 20" fill="none" xmlns="http://www.w3.org/2000/svg">
<path d="M6.72398 2.27102L6.58065 2.38519C6.42648 2.50769 6.34898 2.56852 6.27232 2.60769C6.00648 2.74102 5.68898 2.72352 5.43898 2.56186C5.36732 2.51519 5.29732 2.44519 5.15815 2.30686C4.82482 1.97686 4.65815 1.81102 4.53232 1.75019C4.4265 1.6989 4.31105 1.67052 4.19352 1.6669C4.07599 1.66328 3.95901 1.6845 3.85024 1.72917C3.74146 1.77384 3.64334 1.84097 3.56228 1.92615C3.48122 2.01134 3.41904 2.11267 3.37982 2.22352C3.33398 2.35519 3.33398 2.58852 3.33398 3.05602V17.2485C3.33398 17.4627 3.33398 17.5694 3.34398 17.6319C3.43898 18.2452 4.15565 18.5402 4.66065 18.1727C4.71148 18.1352 4.78815 18.0594 4.94065 17.9085C5.03648 17.8135 5.08482 17.7652 5.12982 17.7285C5.33633 17.5594 5.59125 17.4604 5.85774 17.4457C6.12423 17.4311 6.38849 17.5015 6.61232 17.6469C6.66148 17.6785 6.71482 17.721 6.82065 17.8052L6.93398 17.8952C7.12565 18.0477 7.22232 18.1235 7.31815 18.1752C7.69148 18.3777 8.14315 18.3777 8.51648 18.1752C8.61232 18.1235 8.70815 18.0477 8.89982 17.8952L8.95898 17.8485C9.20648 17.6527 9.32982 17.5544 9.45732 17.4935C9.62694 17.4123 9.8126 17.3702 10.0007 17.3702C10.1887 17.3702 10.3744 17.4123 10.544 17.4935C10.6715 17.5544 10.7948 17.6519 11.0423 17.8485L11.1007 17.8952C11.2923 18.0477 11.389 18.1235 11.4848 18.1752C11.8582 18.3777 12.3098 18.3777 12.6832 18.1752C12.779 18.1235 12.8748 18.0477 13.0665 17.8952L13.1807 17.8052C13.2865 17.721 13.3398 17.6785 13.389 17.6469C13.6128 17.5015 13.8771 17.4311 14.1436 17.4457C14.4101 17.4604 14.665 17.5594 14.8715 17.7285C14.9165 17.7652 14.9648 17.8127 15.0607 17.9085C15.2132 18.0594 15.2898 18.1352 15.3407 18.1727C15.8457 18.5394 16.5632 18.2452 16.6573 17.6319C16.6673 17.5694 16.6673 17.4627 16.6673 17.2485V3.05602C16.6673 2.58852 16.6673 2.35519 16.6215 2.22352C16.5823 2.11267 16.5201 2.01134 16.439 1.92615C16.358 1.84097 16.2598 1.77384 16.1511 1.72917C16.0423 1.6845 15.9253 1.66328 15.8078 1.6669C15.6902 1.67052 15.5748 1.6989 15.469 1.75019C15.344 1.81102 15.1773 1.97686 14.844 2.30686C14.704 2.44519 14.634 2.51519 14.5615 2.56186C14.4386 2.64129 14.297 2.6873 14.1509 2.69534C14.0048 2.70337 13.859 2.67316 13.7282 2.60769C13.6523 2.56852 13.5748 2.50769 13.4207 2.38519L13.2773 2.27102C12.8857 1.96019 12.689 1.80436 12.4748 1.73519C12.2215 1.65186 11.9465 1.65186 11.6932 1.73519C11.479 1.80519 11.2832 1.96019 10.8907 2.27102L10.834 2.31686C10.5365 2.55352 10.3873 2.67102 10.2223 2.71686C10.0773 2.75689 9.92405 2.75689 9.77899 2.71686C9.61399 2.67102 9.46482 2.55352 9.16732 2.31686L9.11065 2.27186C8.71898 1.96102 8.52232 1.80519 8.30898 1.73602C8.05462 1.65209 7.78002 1.65209 7.52565 1.73602C7.31232 1.80602 7.11648 1.96102 6.72398 2.27186M12.5007 7.50019L7.50065 12.5002L12.5007 7.50019Z" fill="#FFEDEE"/>
<path d="M6.72398 2.27102L6.58065 2.38519C6.42648 2.50769 6.34898 2.56852 6.27232 2.60769C6.00648 2.74102 5.68898 2.72352 5.43898 2.56186C5.36732 2.51519 5.29732 2.44519 5.15815 2.30686C4.82482 1.97686 4.65815 1.81102 4.53232 1.75019C4.4265 1.6989 4.31105 1.67052 4.19352 1.6669C4.07599 1.66328 3.95901 1.6845 3.85024 1.72917C3.74146 1.77384 3.64334 1.84097 3.56228 1.92615C3.48122 2.01134 3.41904 2.11267 3.37982 2.22352C3.33398 2.35519 3.33398 2.58852 3.33398 3.05602V17.2485C3.33398 17.4627 3.33398 17.5694 3.34398 17.6319C3.43898 18.2452 4.15565 18.5402 4.66065 18.1727C4.71148 18.1352 4.78815 18.0594 4.94065 17.9085C5.03648 17.8135 5.08482 17.7652 5.12982 17.7285C5.33633 17.5594 5.59125 17.4604 5.85774 17.4457C6.12423 17.4311 6.38849 17.5015 6.61232 17.6469C6.66148 17.6785 6.71482 17.721 6.82065 17.8052L6.93398 17.8952C7.12565 18.0477 7.22232 18.1235 7.31815 18.1752C7.69148 18.3777 8.14315 18.3777 8.51648 18.1752C8.61232 18.1235 8.70815 18.0477 8.89982 17.8952L8.95898 17.8485C9.20648 17.6527 9.32982 17.5544 9.45732 17.4935C9.62694 17.4123 9.8126 17.3702 10.0007 17.3702C10.1887 17.3702 10.3744 17.4123 10.544 17.4935C10.6715 17.5544 10.7948 17.6519 11.0423 17.8485L11.1007 17.8952C11.2923 18.0477 11.389 18.1235 11.4848 18.1752C11.8582 18.3777 12.3098 18.3777 12.6832 18.1752C12.779 18.1235 12.8748 18.0477 13.0665 17.8952L13.1807 17.8052C13.2865 17.721 13.3398 17.6785 13.389 17.6469C13.6128 17.5015 13.8771 17.4311 14.1436 17.4457C14.4101 17.4604 14.665 17.5594 14.8715 17.7285C14.9165 17.7652 14.9648 17.8127 15.0607 17.9085C15.2132 18.0594 15.2898 18.1352 15.3407 18.1727C15.8457 18.5394 16.5632 18.2452 16.6573 17.6319C16.6673 17.5694 16.6673 17.4627 16.6673 17.2485V3.05602C16.6673 2.58852 16.6673 2.35519 16.6215 2.22352C16.5823 2.11267 16.5201 2.01134 16.439 1.92615C16.358 1.84097 16.2598 1.77384 16.1511 1.72917C16.0423 1.6845 15.9253 1.66328 15.8078 1.6669C15.6902 1.67052 15.5748 1.6989 15.469 1.75019C15.344 1.81102 15.1773 1.97686 14.844 2.30686C14.704 2.44519 14.634 2.51519 14.5615 2.56186C14.4386 2.64129 14.297 2.6873 14.1509 2.69534C14.0048 2.70337 13.859 2.67316 13.7282 2.60769C13.6523 2.56852 13.5748 2.50769 13.4207 2.38519L13.2773 2.27102C12.8857 1.96019 12.689 1.80436 12.4748 1.73519C12.2215 1.65186 11.9465 1.65186 11.6932 1.73519C11.479 1.80519 11.2832 1.96019 10.8907 2.27102L10.834 2.31686C10.5365 2.55352 10.3873 2.67102 10.2223 2.71686C10.0773 2.75689 9.92405 2.75689 9.77898 2.71686C9.61398 2.67102 9.46482 2.55352 9.16732 2.31686L9.11065 2.27186C8.71898 1.96102 8.52232 1.80519 8.30898 1.73602C8.05462 1.65209 7.78002 1.65209 7.52565 1.73602C7.31232 1.80602 7.11648 1.96102 6.72398 2.27186M12.5007 7.50019L7.50065 12.5002" stroke="#901C27" stroke-width="0.9375" stroke-linecap="round" stroke-linejoin="round"/>
<path d="M7.8125 7.70833H7.70833H7.8125ZM7.91667 7.70833C7.91667 7.76359 7.89472 7.81658 7.85565 7.85565C7.81658 7.89472 7.76359 7.91667 7.70833 7.91667C7.65308 7.91667 7.60009 7.89472 7.56102 7.85565C7.52195 7.81658 7.5 7.76359 7.5 7.70833C7.5 7.65308 7.52195 7.60009 7.56102 7.56102C7.60009 7.52195 7.65308 7.5 7.70833 7.5C7.76359 7.5 7.81658 7.52195 7.85565 7.56102C7.89472 7.60009 7.91667 7.65308 7.91667 7.70833ZM12.3958 12.2917H12.2917H12.3958ZM12.5 12.2917C12.5 12.3469 12.4781 12.3999 12.439 12.439C12.3999 12.4781 12.3469 12.5 12.2917 12.5C12.2364 12.5 12.1834 12.4781 12.1444 12.439C12.1053 12.3999 12.0833 12.3469 12.0833 12.2917C12.0833 12.2364 12.1053 12.1834 12.1444 12.1444C12.1834 12.1053 12.2364 12.0833 12.2917 12.0833C12.3469 12.0833 12.3999 12.1053 12.439 12.1444C12.4781 12.1834 12.5 12.2364 12.5 12.2917Z" fill="#FFEDEE"/>
<path d="M7.8125 7.70833H7.70833M12.3958 12.2917H12.2917M7.91667 7.70833C7.91667 7.76359 7.89472 7.81658 7.85565 7.85565C7.81658 7.89472 7.76359 7.91667 7.70833 7.91667C7.65308 7.91667 7.60009 7.89472 7.56102 7.85565C7.52195 7.81658 7.5 7.76359 7.5 7.70833C7.5 7.65308 7.52195 7.60009 7.56102 7.56102C7.60009 7.52195 7.65308 7.5 7.70833 7.5C7.76359 7.5 7.81658 7.52195 7.85565 7.56102C7.89472 7.60009 7.91667 7.65308 7.91667 7.70833ZM12.5 12.2917C12.5 12.3469 12.4781 12.3999 12.439 12.439C12.3999 12.4781 12.3469 12.5 12.2917 12.5C12.2364 12.5 12.1834 12.4781 12.1444 12.439C12.1053 12.3999 12.0833 12.3469 12.0833 12.2917C12.0833 12.2364 12.1053 12.1834 12.1444 12.1444C12.1834 12.1053 12.2364 12.0833 12.2917 12.0833C12.3469 12.0833 12.3999 12.1053 12.439 12.1444C12.4781 12.1834 12.5 12.2364 12.5 12.2917Z" stroke="#901C27" stroke-width="0.9375" stroke-linecap="round" stroke-linejoin="round"/>
</svg>
