<svg width="54" height="54" viewBox="0 0 54 54" fill="none" xmlns="http://www.w3.org/2000/svg">
<mask id="path-1-inside-1_512_6812" fill="white">
<path d="M0 9.30853C0 4.16757 4.16757 0 9.30853 0H44.6915C49.8324 0 54 4.16757 54 9.30853V44.6915C54 49.8324 49.8324 54 44.6915 54H9.30853C4.16757 54 0 49.8324 0 44.6915V9.30853Z"/>
</mask>
<path d="M0 9.30853C0 4.16757 4.16757 0 9.30853 0H44.6915C49.8324 0 54 4.16757 54 9.30853V44.6915C54 49.8324 49.8324 54 44.6915 54H9.30853C4.16757 54 0 49.8324 0 44.6915V9.30853Z" fill="white"/>
<path d="M9.30853 0V0.918605H44.6915V0V-0.918605H9.30853V0ZM54 9.30853H53.0814V44.6915H54H54.9186V9.30853H54ZM44.6915 54V53.0814H9.30853V54V54.9186H44.6915V54ZM0 44.6915H0.918605V9.30853H0H-0.918605V44.6915H0ZM9.30853 54V53.0814C4.6749 53.0814 0.918605 49.3251 0.918605 44.6915H0H-0.918605C-0.918605 50.3398 3.66024 54.9186 9.30853 54.9186V54ZM54 44.6915H53.0814C53.0814 49.3251 49.3251 53.0814 44.6915 53.0814V54V54.9186C50.3398 54.9186 54.9186 50.3398 54.9186 44.6915H54ZM44.6915 0V0.918605C49.3251 0.918605 53.0814 4.6749 53.0814 9.30853H54H54.9186C54.9186 3.66024 50.3398 -0.918605 44.6915 -0.918605V0ZM9.30853 0V-0.918605C3.66024 -0.918605 -0.918605 3.66024 -0.918605 9.30853H0H0.918605C0.918605 4.6749 4.6749 0.918605 9.30853 0.918605V0Z" fill="black" fill-opacity="0.08" mask="url(#path-1-inside-1_512_6812)"/>
<g clip-path="url(#clip0_512_6812)">
<path d="M37.1049 14.7529H13.8336C12.8591 14.7529 11.9245 15.1401 11.2354 15.8291C10.5463 16.5182 10.1592 17.4528 10.1592 18.4273V35.5746C10.1592 36.5492 10.5463 37.4838 11.2354 38.1728C11.9245 38.8619 12.8591 39.2491 13.8336 39.2491H37.1049C38.0794 39.2491 39.014 38.8619 39.7031 38.1728C40.3922 37.4838 40.7793 36.5492 40.7793 35.5746V31.594H34.6553C33.8432 31.594 33.0644 31.2714 32.4901 30.6972C31.9159 30.1229 31.5933 29.3441 31.5933 28.532V25.47C31.5933 24.6579 31.9159 23.8791 32.4901 23.3048C33.0644 22.7306 33.8432 22.408 34.6553 22.408H40.7793V18.4273C40.7793 17.4528 40.3922 16.5182 39.7031 15.8291C39.014 15.1401 38.0794 14.7529 37.1049 14.7529Z" fill="#FFEDEE"/>
<path d="M40.7793 22.408V18.4273C40.7793 16.3988 39.432 14.7529 37.7724 14.7529H13.1661C11.5049 14.7529 10.1592 16.3988 10.1592 18.4273V35.5746C10.1592 37.6032 11.5065 39.2491 13.1661 39.2491H37.7724C39.4336 39.2491 40.7793 37.6032 40.7793 35.5746V31.594M39.2483 27.001H39.2636M34.0429 22.408H41.3917C42.0414 22.408 42.6645 22.6661 43.1239 23.1254C43.5833 23.5848 43.8414 24.2079 43.8414 24.8576V29.1444C43.8414 29.7941 43.5833 30.4171 43.1239 30.8765C42.6645 31.3359 42.0414 31.594 41.3917 31.594H34.0429C33.3932 31.594 32.7702 31.3359 32.3108 30.8765C31.8514 30.4171 31.5933 29.7941 31.5933 29.1444V24.8576C31.5933 24.2079 31.8514 23.5848 32.3108 23.1254C32.7702 22.6661 33.3932 22.408 34.0429 22.408Z" stroke="#901C27" stroke-width="1.5" stroke-linecap="round" stroke-linejoin="round"/>
</g>
<defs>
<clipPath id="clip0_512_6812">
<rect width="36.7442" height="36.7442" fill="white" transform="translate(8.62793 8.62793)"/>
</clipPath>
</defs>
</svg>
